<svg width="10" height="16" viewBox="0 0 10 16" fill="none" xmlns="http://www.w3.org/2000/svg">
<path d="M7.19191 7.43456C8.08156 6.83594 8.66653 5.82031 8.66653 4.66747C8.66653 3.05759 7.52494 1.71384 6.00688 1.40234V0.333C6.00684 0.149406 5.85791 0 5.67381 0C5.48972 0 5.34031 0.149406 5.34031 0.333V1.33397C5.33788 1.33397 5.33544 1.33397 5.33347 1.33397H3.99312V0.333C3.99316 0.149406 3.84375 0 3.65966 0C3.47556 0 3.32616 0.149406 3.32616 0.333V1.33397H1.78709V1.333H0.333469C0.149406 1.333 0 1.48244 0 1.6665C0 1.85056 0.149406 2 0.3335 2H1.3335V14H0.3335C0.149406 14 0 14.1494 0 14.3335C0 14.5176 0.149406 14.667 0.3335 14.667H3.32619V15.6665C3.32619 15.8506 3.47559 16 3.65969 16C3.84378 16 3.99319 15.8506 3.99319 15.6665V14.667H5.34034V15.6665C5.34034 15.8506 5.48975 16 5.67384 16C5.85794 16 6.00684 15.8506 6.00684 15.6665V14.667H6.3335C8.35841 14.667 10 13.0254 10 11C10 9.2705 8.80275 7.82128 7.19191 7.43456ZM2 2.00097H5.3335C6.04541 2.00097 6.71534 2.27831 7.21875 2.78172C7.72266 3.28512 8 3.95506 8 4.66747C8 5.37987 7.72266 6.04931 7.21875 6.55272C6.72706 7.04491 6.07716 7.32078 5.38331 7.33347H2V2.00097ZM8.45459 13.1216C7.88819 13.6885 7.13475 14 6.3335 14H2V8.00097H5.3335C5.34962 8.00097 5.36572 8.00047 5.38134 8H6.3335C7.13478 8 7.88819 8.3125 8.45459 8.87891C9.0215 9.44531 9.3335 10.1987 9.3335 11C9.3335 11.8018 9.0215 12.5547 8.45459 13.1216Z" fill="url(#paint0_linear)"/>
<defs>
<linearGradient id="paint0_linear" x1="5.5" y1="-2.51852" x2="6.94203" y2="25.7804" gradientUnits="userSpaceOnUse">
<stop stop-color="#FD749B"/>
<stop offset="1" stop-color="#281AC8"/>
</linearGradient>
</defs>
</svg>
