<svg width="96" height="102" viewBox="0 0 96 102" fill="none" xmlns="http://www.w3.org/2000/svg">
<path opacity="0.253397" fill-rule="evenodd" clip-rule="evenodd" d="M20.3643 81.5933C20.3643 81.5933 20.6505 80.0124 21.6144 81.7202L20.3643 81.5933ZM82.006 32.2967C82.9569 32.9877 84.0935 33.7652 85.443 34.6396C94.3081 40.3833 92.7994 47.9908 91.2454 55.8264C90.1391 61.4043 89.01 67.0978 91.5836 72.3169C97.7726 84.8679 96.4574 90.0768 88.1542 94.0236C84.8763 95.5817 81.0192 94.2249 77.0279 92.8209C70.9088 90.6684 64.4745 88.4051 59.3288 96.3643C50.8267 109.515 25.4278 93.2768 23.1816 85.8575C22.5254 83.6901 22.0122 82.4251 21.6144 81.7202L61.6244 85.7822L81.9384 67.3654L82.006 32.2967ZM82.006 32.2967C72.264 25.2176 82.0157 27.2226 82.0157 27.2226L82.006 32.2967Z" fill="url(#paint0_linear)"/>
<path opacity="0.518059" fill-rule="evenodd" clip-rule="evenodd" d="M80.5922 42.5215C80.5922 42.5215 79.7081 42.4701 80.5774 41.8192L80.5922 42.5215ZM82.7352 40.6685C81.5936 41.1799 80.9362 41.5506 80.5774 41.8192L80.1039 19.3426L68.66 9.3217L50.5147 3.6134C50.5147 3.6134 43.1146 14.6479 47.4711 5.55935C49.9334 0.422619 54.9785 1.84644 60.0647 3.28186C63.9776 4.38616 67.9148 5.49733 70.719 3.63343C77.1683 -0.653237 80.1065 -0.277263 82.8251 4.06193C83.8984 5.77493 83.416 8.00734 82.9168 10.3174C82.1515 13.8589 81.3468 17.583 86.0477 19.8976C93.815 23.7219 86.6427 38.9182 82.7352 40.6685Z" fill="url(#paint1_linear)"/>
<circle cx="44.8541" cy="46.7999" r="39.8541" stroke="#FAA9C6" stroke-width="10"/>
<g filter="url(#filter0_d)">
<path d="M42.1566 7.03719C49.2976 6.55275 56.4373 8.00033 62.8257 11.2279C69.2141 14.4554 74.6155 19.3438 78.4624 25.3796C82.3093 31.4154 84.4597 38.3757 84.6879 45.5295C84.916 52.6833 83.2134 59.7665 79.7589 66.0351C76.3044 72.3038 71.2255 77.5264 65.0558 81.1544C58.886 84.7825 51.853 86.6821 44.6956 86.6536C37.5382 86.6251 30.5206 84.6697 24.3799 80.9927C18.2391 77.3158 13.2019 72.0529 9.79737 65.757" stroke="url(#paint2_linear)" stroke-width="10" stroke-linecap="round"/>
</g>
<defs>
<filter id="filter0_d" x="0.796875" y="1.9458" width="92.9117" height="97.7081" filterUnits="userSpaceOnUse" color-interpolation-filters="sRGB">
<feFlood flood-opacity="0" result="BackgroundImageFix"/>
<feColorMatrix in="SourceAlpha" type="matrix" values="0 0 0 0 0 0 0 0 0 0 0 0 0 0 0 0 0 0 127 0"/>
<feOffset dy="4"/>
<feGaussianBlur stdDeviation="2"/>
<feColorMatrix type="matrix" values="0 0 0 0 0 0 0 0 0 0 0 0 0 0 0 0 0 0 0.25 0"/>
<feBlend mode="normal" in2="BackgroundImageFix" result="effect1_dropShadow"/>
<feBlend mode="normal" in="SourceGraphic" in2="effect1_dropShadow" result="shape"/>
</filter>
<linearGradient id="paint0_linear" x1="61.6608" y1="15.2524" x2="65.818" y2="147.019" gradientUnits="userSpaceOnUse">
<stop stop-color="#FD749B"/>
<stop offset="1" stop-color="#281AC8"/>
</linearGradient>
<linearGradient id="paint1_linear" x1="69.9754" y1="-5.99186" x2="72.2588" y2="68.2657" gradientUnits="userSpaceOnUse">
<stop stop-color="#FD749B"/>
<stop offset="1" stop-color="#281AC8"/>
</linearGradient>
<linearGradient id="paint2_linear" x1="49.3395" y1="-12.1749" x2="54.4006" y2="146.741" gradientUnits="userSpaceOnUse">
<stop stop-color="#FD749B"/>
<stop offset="1" stop-color="#281AC8"/>
</linearGradient>
</defs>
</svg>
