<svg width="105" height="23" viewBox="0 0 105 23" fill="none" xmlns="http://www.w3.org/2000/svg">
<path d="M34.373 15.0128C34.373 13.9847 34.6063 13.0624 35.0727 12.246C35.5392 11.4195 36.1729 10.7744 36.974 10.3107C37.7852 9.84708 38.6826 9.61525 39.6662 9.61525C40.8222 9.61525 41.8311 9.89243 42.6931 10.4468C43.555 11.0012 44.1837 11.7874 44.5791 12.8054H42.9212C42.6271 12.1704 42.2013 11.6815 41.6435 11.3388C41.096 10.9961 40.4369 10.8248 39.6662 10.8248C38.926 10.8248 38.2618 10.9961 37.6737 11.3388C37.0855 11.6815 36.6242 12.1704 36.2895 12.8054C35.9549 13.4303 35.7876 14.1661 35.7876 15.0128C35.7876 15.8494 35.9549 16.5852 36.2895 17.2202C36.6242 17.8451 37.0855 18.329 37.6737 18.6717C38.2618 19.0144 38.926 19.1857 39.6662 19.1857C40.4369 19.1857 41.096 19.0194 41.6435 18.6868C42.2013 18.3441 42.6271 17.8552 42.9212 17.2202H44.5791C44.1837 18.2282 43.555 19.0093 42.6931 19.5637C41.8311 20.108 40.8222 20.3801 39.6662 20.3801C38.6826 20.3801 37.7852 20.1533 36.974 19.6998C36.1729 19.2361 35.5392 18.5961 35.0727 17.7796C34.6063 16.9632 34.373 16.0409 34.373 15.0128Z" fill="#5C5C5C"/>
<path d="M50.2748 20.4255C49.494 20.4255 48.7842 20.2491 48.1453 19.8963C47.5166 19.5435 47.0198 19.0446 46.6547 18.3995C46.2998 17.7443 46.1224 16.9884 46.1224 16.1316C46.1224 15.285 46.3049 14.5391 46.6699 13.894C47.0451 13.2388 47.5521 12.7399 48.191 12.3972C48.8298 12.0444 49.5447 11.868 50.3356 11.868C51.1265 11.868 51.8414 12.0444 52.4802 12.3972C53.1191 12.7399 53.621 13.2338 53.9861 13.8789C54.3612 14.524 54.5488 15.2749 54.5488 16.1316C54.5488 16.9884 54.3562 17.7443 53.9709 18.3995C53.5957 19.0446 53.0836 19.5435 52.4346 19.8963C51.7856 20.2491 51.0657 20.4255 50.2748 20.4255ZM50.2748 19.2159C50.7716 19.2159 51.2381 19.1 51.6741 18.8682C52.1101 18.6364 52.46 18.2886 52.7236 17.825C52.9974 17.3613 53.1343 16.7969 53.1343 16.1316C53.1343 15.4664 53.0025 14.9019 52.7388 14.4383C52.4752 13.9746 52.1304 13.6319 51.7045 13.4102C51.2786 13.1783 50.8173 13.0624 50.3204 13.0624C49.8134 13.0624 49.3469 13.1783 48.9211 13.4102C48.5053 13.6319 48.1707 13.9746 47.9172 14.4383C47.6637 14.9019 47.5369 15.4664 47.5369 16.1316C47.5369 16.807 47.6586 17.3764 47.902 17.8401C48.1555 18.3038 48.4901 18.6515 48.9058 18.8833C49.3216 19.1051 49.7779 19.2159 50.2748 19.2159Z" fill="#5C5C5C"/>
<path d="M57.0836 10.6585C56.82 10.6585 56.5969 10.5678 56.4144 10.3863C56.2318 10.2049 56.1406 9.98315 56.1406 9.72108C56.1406 9.45902 56.2318 9.23727 56.4144 9.05584C56.5969 8.87441 56.82 8.78369 57.0836 8.78369C57.3371 8.78369 57.5501 8.87441 57.7224 9.05584C57.905 9.23727 57.9962 9.45902 57.9962 9.72108C57.9962 9.98315 57.905 10.2049 57.7224 10.3863C57.5501 10.5678 57.3371 10.6585 57.0836 10.6585ZM57.7529 12.0041V20.2894H56.3687V12.0041H57.7529Z" fill="#5C5C5C"/>
<path d="M64.173 11.8529C65.187 11.8529 66.0084 12.1603 66.6371 12.7752C67.2658 13.3799 67.5801 14.2568 67.5801 15.4059V20.2894H66.2112V15.6025C66.2112 14.7759 66.0033 14.146 65.5876 13.7126C65.1718 13.2691 64.604 13.0473 63.884 13.0473C63.1539 13.0473 62.5709 13.2741 62.1348 13.7277C61.7089 14.1812 61.496 14.8415 61.496 15.7083V20.2894H60.1119V12.0041H61.496V13.1834C61.7698 12.76 62.1399 12.4325 62.6063 12.2006C63.0829 11.9688 63.6052 11.8529 64.173 11.8529Z" fill="#5C5C5C"/>
<path d="M75.1495 14.8616C75.5348 14.9221 75.8846 15.0783 76.199 15.3303C76.5234 15.5823 76.777 15.8948 76.9595 16.2677C77.1521 16.6406 77.2485 17.0388 77.2485 17.4621C77.2485 17.9963 77.1116 18.4801 76.8378 18.9136C76.564 19.3369 76.1635 19.6746 75.6362 19.9265C75.119 20.1685 74.5056 20.2894 73.7957 20.2894H69.8411V9.75132H73.6436C74.3636 9.75132 74.9771 9.87227 75.4841 10.1142C75.9911 10.346 76.3713 10.6635 76.6248 11.0667C76.8784 11.4699 77.0051 11.9234 77.0051 12.4274C77.0051 13.0523 76.8327 13.5714 76.488 13.9847C76.1533 14.3879 75.7072 14.6802 75.1495 14.8616ZM71.2252 14.3022H73.5524C74.2014 14.3022 74.7033 14.151 75.0582 13.8486C75.4131 13.5462 75.5906 13.1279 75.5906 12.5937C75.5906 12.0595 75.4131 11.6412 75.0582 11.3388C74.7033 11.0365 74.1912 10.8853 73.522 10.8853H71.2252V14.3022ZM73.6741 19.1555C74.3636 19.1555 74.901 18.9942 75.2863 18.6717C75.6717 18.3491 75.8643 17.9006 75.8643 17.326C75.8643 16.7414 75.6615 16.2828 75.2559 15.9502C74.8503 15.6075 74.3078 15.4361 73.6284 15.4361H71.2252V19.1555H73.6741Z" fill="#5C5C5C"/>
<path d="M78.6521 16.1165C78.6521 15.2698 78.8245 14.529 79.1692 13.894C79.514 13.2489 79.9855 12.75 80.5838 12.3972C81.1922 12.0444 81.8665 11.868 82.6068 11.868C83.3368 11.868 83.9706 12.0242 84.508 12.3367C85.0455 12.6492 85.446 13.0423 85.7096 13.516V12.0041H87.109V20.2894H85.7096V18.7473C85.4359 19.2311 85.0252 19.6342 84.4776 19.9568C83.9402 20.2693 83.3115 20.4255 82.5915 20.4255C81.8513 20.4255 81.1821 20.2441 80.5838 19.8812C79.9855 19.5183 79.514 19.0093 79.1692 18.3542C78.8245 17.699 78.6521 16.9531 78.6521 16.1165ZM85.7096 16.1316C85.7096 15.5067 85.5829 14.9624 85.3294 14.4988C85.0759 14.0351 84.7311 13.6823 84.2951 13.4404C83.8692 13.1884 83.3977 13.0624 82.8805 13.0624C82.3634 13.0624 81.8919 13.1834 81.466 13.4253C81.0401 13.6672 80.7004 14.02 80.4469 14.4836C80.1934 14.9473 80.0666 15.4916 80.0666 16.1165C80.0666 16.7515 80.1934 17.3059 80.4469 17.7796C80.7004 18.2433 81.0401 18.6011 81.466 18.8531C81.8919 19.095 82.3634 19.2159 82.8805 19.2159C83.3977 19.2159 83.8692 19.095 84.2951 18.8531C84.7311 18.6011 85.0759 18.2433 85.3294 17.7796C85.5829 17.3059 85.7096 16.7566 85.7096 16.1316Z" fill="#5C5C5C"/>
<path d="M92.3988 20.4255C91.76 20.4255 91.1871 20.3196 90.6801 20.108C90.1731 19.8862 89.7725 19.5838 89.4785 19.2008C89.1844 18.8077 89.0222 18.3592 88.9917 17.8552H90.4215C90.4621 18.2685 90.6547 18.6061 90.9995 18.8682C91.3544 19.1303 91.8158 19.2613 92.3836 19.2613C92.9109 19.2613 93.3266 19.1454 93.6309 18.9136C93.9351 18.6817 94.0872 18.3894 94.0872 18.0366C94.0872 17.6738 93.9249 17.4067 93.6004 17.2353C93.276 17.0539 92.774 16.8775 92.0946 16.7062C91.4761 16.5449 90.9691 16.3836 90.5736 16.2223C90.1883 16.051 89.8536 15.804 89.5697 15.4815C89.2959 15.1489 89.159 14.7155 89.159 14.1812C89.159 13.7579 89.2858 13.3699 89.5393 13.0171C89.7928 12.6643 90.1528 12.3871 90.6192 12.1855C91.0857 11.9738 91.618 11.868 92.2163 11.868C93.1391 11.868 93.8844 12.0998 94.4522 12.5635C95.0201 13.0271 95.3243 13.6622 95.3648 14.4685H93.9807C93.9503 14.0351 93.7728 13.6874 93.4483 13.4253C93.134 13.1632 92.7081 13.0322 92.1707 13.0322C91.6738 13.0322 91.2783 13.138 90.9843 13.3497C90.6902 13.5614 90.5432 13.8385 90.5432 14.1812C90.5432 14.4534 90.6294 14.6802 90.8017 14.8616C90.9843 15.033 91.2074 15.1741 91.471 15.285C91.7448 15.3857 92.12 15.5017 92.5966 15.6327C93.1948 15.794 93.6816 15.9552 94.0567 16.1165C94.4319 16.2677 94.7513 16.4995 95.015 16.812C95.2888 17.1245 95.4307 17.5327 95.4409 18.0366C95.4409 18.4902 95.3141 18.8984 95.0606 19.2613C94.8071 19.6242 94.4471 19.9114 93.9807 20.1231C93.5244 20.3247 92.9971 20.4255 92.3988 20.4255Z" fill="#5C5C5C"/>
<path d="M105 15.8292C105 16.0913 104.985 16.3685 104.954 16.6608H98.2922C98.3429 17.4772 98.6218 18.1173 99.1288 18.5809C99.6459 19.0345 100.27 19.2613 101 19.2613C101.598 19.2613 102.095 19.1252 102.49 18.8531C102.896 18.5709 103.18 18.1979 103.342 17.7343H104.833C104.61 18.5305 104.163 19.1807 103.494 19.6846C102.825 20.1785 101.993 20.4255 101 20.4255C100.209 20.4255 99.4989 20.2491 98.8702 19.8963C98.2516 19.5435 97.7649 19.0446 97.41 18.3995C97.0551 17.7443 96.8776 16.9884 96.8776 16.1316C96.8776 15.2749 97.05 14.524 97.3948 13.8789C97.7396 13.2338 98.2212 12.7399 98.8398 12.3972C99.4685 12.0444 100.188 11.868 101 11.868C101.791 11.868 102.49 12.0394 103.099 12.3821C103.707 12.7248 104.173 13.1985 104.498 13.8033C104.833 14.398 105 15.0733 105 15.8292ZM103.57 15.542C103.57 15.0178 103.454 14.5693 103.22 14.1964C102.987 13.8133 102.668 13.5261 102.262 13.3346C101.867 13.133 101.426 13.0322 100.939 13.0322C100.239 13.0322 99.6408 13.2539 99.144 13.6974C98.6572 14.1409 98.3784 14.7558 98.3074 15.542H103.57Z" fill="#5C5C5C"/>
<path d="M18.7612 21.9777H25.5522C27.0149 21.9777 28.1642 20.6542 28.1642 19.1101C28.1642 17.5661 27.0149 16.2426 25.5522 16.2426C25.0298 16.2426 24.5075 16.2426 23.9851 16.2426C26.0746 11.5001 25.0298 1.02246 15.6269 1.02246C9.35821 1.02246 6.22388 4.88263 6.22388 12.7133H5.1791C2.8806 12.7133 1 14.8088 1 17.3455C1 19.8822 2.8806 21.9777 5.1791 21.9777H10.403H18.7612Z" stroke="url(#paint0_linear)" stroke-width="2" stroke-linecap="round" stroke-linejoin="round"/>
<path d="M15.5737 11.3439L13.8301 11.9264L12.9631 9.33118L14.6797 8.75771C15.0354 8.63886 15.4136 8.66339 15.7459 8.82555L15.746 8.82561C16.0783 8.98756 16.3234 9.26675 16.4389 9.61259C16.5544 9.95837 16.5264 10.3285 16.3581 10.6577L16.358 10.658C16.1942 10.9793 15.9173 11.2217 15.5737 11.3439ZM11.7491 9.73613L12.0981 9.61955L14.2473 16.0527L13.8983 16.1693C13.6635 16.2477 13.5286 16.5019 13.6091 16.7429C13.6896 16.9838 13.9502 17.1059 14.185 17.0274L15.7018 16.5207L15.8148 16.8589C15.8953 17.0998 16.1559 17.2219 16.3907 17.1435C16.6255 17.065 16.7605 16.8108 16.68 16.5699L16.567 16.2317L16.8823 16.1263L16.9953 16.4645C17.0758 16.7055 17.3364 16.8275 17.5712 16.7491C17.8065 16.6705 17.9405 16.4161 17.8601 16.1756L17.747 15.837C19.0318 15.3811 19.7326 13.9933 19.3031 12.7077C18.9842 11.7532 18.1332 11.1284 17.1842 11.0367C17.4391 10.5204 17.4998 9.91023 17.3038 9.32365C16.9774 8.34668 16.0438 7.74562 15.0553 7.77975L14.9115 7.34942L14.9115 7.34938C14.8311 7.10899 14.571 6.98654 14.3359 7.06505C14.1014 7.14342 13.9661 7.39749 14.0466 7.63836L14.1599 7.97742L13.8446 8.08276L13.7313 7.74375C13.7313 7.74374 13.7313 7.74372 13.7313 7.74371C13.6508 7.50281 13.39 7.38106 13.1555 7.45942C12.9209 7.53778 12.7857 7.79186 12.8662 8.03273L12.9794 8.37178L12.5516 8.5147L12.5515 8.51414L12.3143 8.59335L11.4624 8.87797C11.2276 8.95642 11.0927 9.21068 11.1732 9.45156C11.2537 9.69246 11.5143 9.81458 11.7491 9.73613ZM18.3455 14.197L18.3455 14.1971C18.1527 14.5752 17.823 14.8581 17.4148 14.9945L15.1121 15.7638L14.1169 12.7849L15.8335 12.2114C15.8453 12.2074 15.8567 12.2033 15.8649 12.2003L16.4194 12.015C16.8274 11.8787 17.2612 11.9071 17.6427 12.0932L17.6428 12.0932C18.0242 12.2792 18.3056 12.5996 18.4382 12.9966C18.5709 13.3938 18.5386 13.8188 18.3455 14.197Z" fill="url(#paint1_linear)" stroke="url(#paint2_linear)" stroke-width="0.5"/>
<defs>
<linearGradient id="paint0_linear" x1="15.9403" y1="-2.27605" x2="16.8527" y2="34.8609" gradientUnits="userSpaceOnUse">
<stop stop-color="#FD749B"/>
<stop offset="1" stop-color="#281AC8"/>
</linearGradient>
<linearGradient id="paint1_linear" x1="13.829" y1="5.88651" x2="20.0867" y2="21.9049" gradientUnits="userSpaceOnUse">
<stop stop-color="#FD749B"/>
<stop offset="1" stop-color="#281AC8"/>
</linearGradient>
<linearGradient id="paint2_linear" x1="13.829" y1="5.88651" x2="20.0867" y2="21.9049" gradientUnits="userSpaceOnUse">
<stop stop-color="#FD749B"/>
<stop offset="1" stop-color="#281AC8"/>
</linearGradient>
</defs>
</svg>
