<svg width="17" height="15" viewBox="0 0 17 15" fill="none" xmlns="http://www.w3.org/2000/svg">
<path d="M3.09282 1H10.4177C11.5687 1 12.5105 1.94177 12.5105 3.09282V7.38309C12.5105 8.53414 11.5687 9.47591 10.4177 9.47591H6.28436L3.40674 11.9873V9.47591H2.46497C1.62785 9.47591 1 8.84806 1 8.06326V3.09282C1 1.94177 1.94177 1 3.09282 1Z" stroke="url(#paint0_linear)" stroke-linecap="round" stroke-linejoin="round"/>
<path d="M5.70801 10.4176C5.70801 10.9932 6.17889 11.464 6.75442 11.5164L10.3645 11.621L13.2421 14.1324V11.621H14.1839C14.9687 11.621 15.6489 10.9932 15.6489 10.156V5.18559C15.6489 4.03454 14.7071 3.09277 13.5561 3.09277H12.5097" stroke="url(#paint1_linear)" stroke-linecap="round" stroke-linejoin="round"/>
<defs>
<linearGradient id="paint0_linear" x1="7.33077" y1="-0.729481" x2="7.92253" y2="18.736" gradientUnits="userSpaceOnUse">
<stop stop-color="#FD749B"/>
<stop offset="1" stop-color="#281AC8"/>
</linearGradient>
<linearGradient id="paint1_linear" x1="11.1755" y1="1.35506" x2="11.867" y2="20.9069" gradientUnits="userSpaceOnUse">
<stop stop-color="#FD749B"/>
<stop offset="1" stop-color="#281AC8"/>
</linearGradient>
</defs>
</svg>
